[Header]
FileType HTR
DataType HTRS
FileVersion 1
NumSegments 64
NumFrames 4
DataFrameRate 24
EulerRotationOrder ZYX
CalibrationUnits mm
RotationUnits Degrees
GlobalAxisofGravity Y
BoneLengthAxis Y
ScaleFactor 1.0
[SegmentNames&Hierarchy]
Hips	GLOBAL
Spine	Hips
Spine1	Spine
Spine2	Spine1
Neck	Spine2
Head	Neck
LeftEye	Head
RightEye	Head
LeftShoulder	Spine2
LeftArm	LeftShoulder
LeftForeArm	LeftArm
LeftHand	LeftForeArm
LeftHandThumb1	LeftHand
LeftHandThumb2	LeftHandThumb1
LeftHandThumb3	LeftHandThumb2
LeftHandThumb4	LeftHandThumb3
LeftHandIndex1	LeftHand
LeftHandIndex2	LeftHandIndex1
LeftHandIndex3	LeftHandIndex2
LeftHandIndex4	LeftHandIndex3
LeftHandMiddle1	LeftHand
LeftHandMiddle2	LeftHandMiddle1
LeftHandMiddle3	LeftHandMiddle2
LeftHandMiddle4	LeftHandMiddle3
LeftHandRing1	LeftHand
LeftHandRing2	LeftHandRing1
LeftHandRing3	LeftHandRing2
LeftHandRing4	LeftHandRing3
LeftHandPinky1	LeftHand
LeftHandPinky2	LeftHandPinky1
LeftHandPinky3	LeftHandPinky2
LeftHandPinky4	LeftHandPinky3
RightShoulder	Spine2
RightArm	RightShoulder
RightForeArm	RightArm
RightHand	RightForeArm
RightHandPinky1	RightHand
RightHandPinky2	RightHandPinky1
RightHandPinky3	RightHandPinky2
RightHandPinky4	RightHandPinky3
RightHandRing1	RightHand
RightHandRing2	RightHandRing1
RightHandRing3	RightHandRing2
RightHandRing4	RightHandRing3
RightHandMiddle1	RightHand
RightHandMiddle2	RightHandMiddle1
RightHandMiddle3	RightHandMiddle2
RightHandMiddle4	RightHandMiddle3
RightHandIndex1	RightHand
RightHandIndex2	RightHandIndex1
RightHandIndex3	RightHandIndex2
RightHandIndex4	RightHandIndex3
RightHandThumb1	RightHand
RightHandThumb2	RightHandThumb1
RightHandThumb3	RightHandThumb2
RightHandThumb4	RightHandThumb3
LeftUpLeg	Hips
LeftLeg	LeftUpLeg
LeftFoot	LeftLeg
LeftToeBase	LeftFoot
RightUpLeg	Hips
RightLeg	RightUpLeg
RightFoot	RightLeg
RightToeBase	RightFoot
[BasePosition]
Hips	0	0	0	0	0	0	1
Spine	0	0	0	0	0	0	1
Spine1	0	0	0	0	0	0	1
Spine2	0	0	0	0	0	0	1
Neck	0	0	0	0	0	0	1
Head	0	0	0	0	0	0	1
LeftEye	0	0	0	0	0	0	1
RightEye	0	0	0	0	0	0	1
LeftShoulder	0	0	0	0	0	0	1
LeftArm	0	0	0	0	0	0	1
LeftForeArm	0	0	0	0	0	0	1
LeftHand	0	0	0	0	0	0	1
LeftHandThumb1	0	0	0	0	0	0	1
LeftHandThumb2	0	0	0	0	0	0	1
LeftHandThumb3	0	0	0	0	0	0	1
LeftHandThumb4	0	0	0	0	0	0	1
LeftHandIndex1	0	0	0	0	0	0	1
LeftHandIndex2	0	0	0	0	0	0	1
LeftHandIndex3	0	0	0	0	0	0	1
LeftHandIndex4	0	0	0	0	0	0	1
LeftHandMiddle1	0	0	0	0	0	0	1
LeftHandMiddle2	0	0	0	0	0	0	1
LeftHandMiddle3	0	0	0	0	0	0	1
LeftHandMiddle4	0	0	0	0	0	0	1
LeftHandRing1	0	0	0	0	0	0	1
LeftHandRing2	0	0	0	0	0	0	1
LeftHandRing3	0	0	0	0	0	0	1
LeftHandRing4	0	0	0	0	0	0	1
LeftHandPinky1	0	0	0	0	0	0	1
LeftHandPinky2	0	0	0	0	0	0	1
LeftHandPinky3	0	0	0	0	0	0	1
LeftHandPinky4	0	0	0	0	0	0	1
RightShoulder	0	0	0	0	0	0	1
RightArm	0	0	0	0	0	0	1
RightForeArm	0	0	0	0	0	0	1
RightHand	0	0	0	0	0	0	1
RightHandPinky1	0	0	0	0	0	0	1
RightHandPinky2	0	0	0	0	0	0	1
RightHandPinky3	0	0	0	0	0	0	1
RightHandPinky4	0	0	0	0	0	0	1
RightHandRing1	0	0	0	0	0	0	1
RightHandRing2	0	0	0	0	0	0	1
RightHandRing3	0	0	0	0	0	0	1
RightHandRing4	0	0	0	0	0	0	1
RightHandMiddle1	0	0	0	0	0	0	1
RightHandMiddle2	0	0	0	0	0	0	1
RightHandMiddle3	0	0	0	0	0	0	1
RightHandMiddle4	0	0	0	0	0	0	1
RightHandIndex1	0	0	0	0	0	0	1
RightHandIndex2	0	0	0	0	0	0	1
RightHandIndex3	0	0	0	0	0	0	1
RightHandIndex4	0	0	0	0	0	0	1
RightHandThumb1	0	0	0	0	0	0	1
RightHandThumb2	0	0	0	0	0	0	1
RightHandThumb3	0	0	0	0	0	0	1
RightHandThumb4	0	0	0	0	0	0	1
LeftUpLeg	0	0	0	0	0	0	1
LeftLeg	0	0	0	0	0	0	1
LeftFoot	0	0	0	0	0	0	1
LeftToeBase	0	0	0	0	0	0	1
RightUpLeg	0	0	0	0	0	0	1
RightLeg	0	0	0	0	0	0	1
RightFoot	0	0	0	0	0	0	1
RightToeBase	0	0	0	0	0	0	1
[Hips]
1	1.424355745	1033.937378	14.22169876	-3.419287205	-5.442919731	-3.420351744	1.0
2	-1.904742122	1031.032104	16.18966866	-3.465750694	-5.025616169	-2.340355873	1.0
3	-5.206120491	1028.134521	18.14323235	-3.51044035	-4.604179382	-1.260555387	1.0
4	-8.562937737	1025.221802	20.12561035	-3.558677673	-4.191009521	-0.1803637147	1.0
[Spine]
1	0	101.8159943	1.315000057	3.364204407	1.377210379	2.806977987	1.0
2	0	101.8159943	1.315000057	3.371274948	1.411353111	2.10758543	1.0
3	0	101.8159943	1.315000057	3.377114296	1.442699552	1.408634543	1.0
4	0	101.8159943	1.315000057	3.385416269	1.479638815	0.7088003755	1.0
[Spine1]
1	0	100.8349991	-10.00800037	1.154550314	0.2979125082	1.559264183	1.0
2	0	100.8349991	-10.00800037	1.136394501	0.2910870314	1.391264677	1.0
3	0	100.8349991	-10.00800037	1.118367434	0.2838633358	1.223940492	1.0
4	0	100.8349991	-10.00800037	1.100082636	0.2774361372	1.055265665	1.0
[Spine2]
1	0	91	-13.73399925	1.132959247	0.3255805671	1.557645679	1.0
2	0	91	-13.73399925	1.115880013	0.3166896701	1.389900923	1.0
3	0	91	-13.73399925	1.098913908	0.3074190915	1.222828627	1.0
4	0	91	-13.73399925	1.081721783	0.2989078462	1.054411411	1.0
[Neck]
1	0	166.7169952	-25.16200066	5.621861935	-0.122247979	0.4541067183	1.0
2	0	166.7169952	-25.16200066	5.712878227	-0.02148209885	0.4157725573	1.0
3	0	166.7169952	-25.16200066	5.792514801	0.07858489454	0.3782851994	1.0
4	0	166.7169952	-25.16200066	5.894912243	0.1800496578	0.3391041458	1.0
[Head]
1	0	96.17900085	16.84999847	-7.555272579	1.351712942	-0.2643336952	1.0
2	0	96.17900085	16.84999847	-8.015026093	1.661763072	-0.3858222961	1.0
3	0	96.17900085	16.84999847	-8.467903137	1.970608234	-0.5106113553	1.0
4	0	96.17900085	16.84999847	-8.934534073	2.281863689	-0.6287994981	1.0
[LeftEye]
1	30.6760006	64.09500122	92.83599854	0	0	0	1.0
2	30.6760006	64.09500122	92.83599854	0	0	0	1.0
3	30.6760006	64.09500122	92.83599854	0	0	0	1.0
4	30.6760006	64.09500122	92.83599854	0	0	0	1.0
[RightEye]
1	-30.6760006	64.09500122	92.83499908	0	0	0	1.0
2	-30.6760006	64.09500122	92.83499908	0	0	0	1.0
3	-30.6760006	64.09500122	92.83499908	0	0	0	1.0
4	-30.6760006	64.09500122	92.83499908	0	0	0	1.0
[LeftShoulder]
1	45.70400238	109.4599991	-26.28000069	4.900439262	-16.79586983	-13.20130825	1.0
2	45.70400238	109.4599991	-26.28000069	4.904221058	-16.79156303	-13.23676682	1.0
3	45.70400238	109.4599991	-26.28000069	4.908737183	-16.79161644	-13.27631283	1.0
4	45.70400238	109.4599991	-26.28000069	4.911784172	-16.78295326	-13.30768394	1.0
[LeftArm]
1	105.923996	-5.24600029	-22.32099915	20.12815857	-3.088195801	-71.00603485	1.0
2	105.923996	-5.24600029	-22.32099915	18.76406097	-3.012064457	-70.20304108	1.0
3	105.923996	-5.24600029	-22.32099915	17.38372803	-2.95944643	-69.40380859	1.0
4	105.923996	-5.24600029	-22.32099915	16.03586769	-2.859801292	-68.5970459	1.0
[LeftForeArm]
1	278.414978	-0.0009999999311	0	6.348122952e-06	-1.452710748	-0.0002113467781	1.0
2	278.414978	-0.0009999999311	0	4.829121281e-06	-1.640521288	-0.000208934347	1.0
3	278.414978	-0.0009999999311	0	3.389696758e-06	-1.781344295	-0.0002067092864	1.0
4	278.414978	-0.0009999999311	0	1.791118279e-06	-2.016142368	-0.0002041094704	1.0
[LeftHand]
1	283.2879944	0	0	-32.95326614	-4.521543503	-4.44643259	1.0
2	283.2879944	0	0	-30.17708588	-4.892269135	-4.433168888	1.0
3	283.2879944	0	0	-27.39531708	-5.284306526	-4.401816845	1.0
4	283.2879944	0	0	-24.62472153	-5.633721352	-4.40664196	1.0
[LeftHandThumb1]
1	24.6609993	-15.75	26.8239994	-0.4920385182	2.199956417	4.823302746	1.0
2	24.6609993	-15.75	26.8239994	-0.5005707145	1.883269072	4.925919533	1.0
3	24.6609993	-15.75	26.8239994	-0.5090593696	1.565740228	5.028775215	1.0
4	24.6609993	-15.75	26.8239994	-0.5176350474	1.249894381	5.131152153	1.0
[LeftHandThumb2]
1	32.29800034	-18.64699936	18.64699936	19.88842773	19.95653152	23.26544571	1.0
2	32.29800034	-18.64699936	18.64699936	18.75907898	18.7950592	21.7477951	1.0
3	32.29800034	-18.64699936	18.64699936	17.62796211	17.64320755	20.22924232	1.0
4	32.29800034	-18.64699936	18.64699936	16.50038528	16.47211456	18.7124958	1.0
[LeftHandThumb3]
1	26.52600098	-15.31499958	15.31499958	-13.14327812	5.554694653	7.961849689	1.0
2	26.52600098	-15.31499958	15.31499958	-13.4399786	5.147732258	8.512472153	1.0
3	26.52600098	-15.31499958	15.31499958	-13.73362446	4.746650696	9.063383102	1.0
4	26.52600098	-15.31499958	15.31499958	-14.0333786	4.333806992	9.613717079	1.0
[LeftHandThumb4]
1	19.54599953	-11.28499985	11.28499985	0	0	0	1.0
2	19.54599953	-11.28499985	11.28499985	0	0	0	1.0
3	19.54599953	-11.28499985	11.28499985	0	0	0	1.0
4	19.54599953	-11.28499985	11.28499985	0	0	0	1.0
[LeftHandIndex1]
1	91.09299469	-5.170999527	22.60099792	0.1481708586	-0.9587937593	-7.591902256	1.0
2	91.09299469	-5.170999527	22.60099792	0.2808302939	-1.155551195	-6.032849312	1.0
3	91.09299469	-5.170999527	22.60099792	0.4140421152	-1.349804759	-4.487520218	1.0
4	91.09299469	-5.170999527	22.60099792	0.5461491346	-1.549066305	-2.9147439	1.0
[LeftHandIndex2]
1	36.76399994	0	0	-0.2667286098	1.74525094	-17.37727928	1.0
2	36.76399994	0	0	-0.2952799797	1.82799983	-18.2363205	1.0
3	36.76399994	0	0	-0.3240830302	1.911607742	-19.10412788	1.0
4	36.76399994	0	0	-0.3523826599	1.993497849	-19.95440292	1.0
[LeftHandIndex3]
1	28.83100128	0	0	-0.0574384518	0.8174214363	-8.039172173	1.0
2	28.83100128	0	0	-0.1044889688	1.03474462	-10.22159576	1.0
3	28.83100128	0	0	-0.1512969583	1.252979398	-12.412076	1.0
4	28.83100128	0	0	-0.1985899955	1.469391227	-14.5864439	1.0
[LeftHandIndex4]
1	23.92700005	0	0	0	0	0	1.0
2	23.92700005	0	0	0	0	0	1.0
3	23.92700005	0	0	0	0	0	1.0
4	23.92700005	0	0	0	0	0	1.0
[LeftHandMiddle1]
1	95.33399963	0	0	-0.7944075465	2.534473419	-15.71922874	1.0
2	95.33399963	0	0	-0.8327949047	2.599321842	-16.2740593	1.0
3	95.33399963	0	0	-0.8717721701	2.664920092	-16.8375473	1.0
4	95.33399963	0	0	-0.9095696211	2.729018688	-17.38372231	1.0
[LeftHandMiddle2]
1	36.98199844	0	0	-0.2676011622	1.748044848	-17.40599251	1.0
2	36.98199844	0	0	-0.3290866911	1.910837293	-19.11469078	1.0
3	36.98199844	0	0	-0.3907268345	2.074686527	-20.83355713	1.0
4	36.98199844	0	0	-0.4520577192	2.2364223	-22.53208733	1.0
[LeftHandMiddle3]
1	29.50900078	0	0	-0.2992066741	1.845787406	-18.41388321	1.0
2	29.50900078	0	0	-0.3002560139	1.84892869	-18.44636345	1.0
3	29.50900078	0	0	-0.301450789	1.852505803	-18.48334885	1.0
4	29.50900078	0	0	-0.3023546934	1.855211377	-18.51132202	1.0
[LeftHandMiddle4]
1	28.3390007	0	0	0	0	0	1.0
2	28.3390007	0	0	0	0	0	1.0
3	28.3390007	0	0	0	0	0	1.0
4	28.3390007	0	0	0	0	0	1.0
[LeftHandRing1]
1	91.04499817	-0.4390000105	-18.65100098	-1.185063004	3.439615965	-21.16763115	1.0
2	91.04499817	-0.4390000105	-18.65100098	-1.36981225	3.513591528	-23.44086266	1.0
3	91.04499817	-0.4390000105	-18.65100098	-1.554591179	3.588166952	-25.7188797	1.0
4	91.04499817	-0.4390000105	-18.65100098	-1.739310622	3.661542416	-27.98732758	1.0
[LeftHandRing2]
1	31.54000092	0	0	-0.3848823309	2.085428476	-20.91132927	1.0
2	31.54000092	0	0	-0.4184734523	2.166220665	-21.77029228	1.0
3	31.54000092	0	0	-0.4523690939	2.247854948	-22.63802147	1.0
4	31.54000092	0	0	-0.4856557548	2.327805281	-23.4882164	1.0
[LeftHandRing3]
1	29.37700081	0	0	-0.2818885446	1.792955399	-17.86833	1.0
2	29.37700081	0	0	-0.2809279263	1.789973497	-17.83761787	1.0
3	29.37700081	0	0	-0.2801027894	1.787419319	-17.811306	1.0
4	29.37700081	0	0	-0.27900666	1.784009933	-17.77619171	1.0
[LeftHandRing4]
1	26.47500038	0	0	0	0	0	1.0
2	26.47500038	0	0	0	0	0	1.0
3	26.47500038	0	0	0	0	0	1.0
4	26.47500038	0	0	0	0	0	1.0
[LeftHandPinky1]
1	80.77799988	-4.887000084	-38.06099701	-1.71359086	5.355303288	-27.1646843	1.0
2	80.77799988	-4.887000084	-38.06099701	-2.164717197	5.45982933	-29.06472969	1.0
3	80.77799988	-4.887000084	-38.06099701	-2.616526604	5.564538002	-30.97086334	1.0
4	80.77799988	-4.887000084	-38.06099701	-3.066969395	5.668880939	-32.86482239	1.0
[LeftHandPinky2]
1	36	0	0	-0.2676214278	1.74810791	-17.40663528	1.0
2	36	0	0	-0.3610794246	1.978568196	-19.85012245	1.0
3	36	0	0	-0.4537945986	2.209067345	-22.29084396	1.0
4	36	0	0	-0.5479953885	2.439488888	-24.73709488	1.0
[LeftHandPinky3]
1	21.14200211	0	0	-0.2408421487	1.660320759	-16.50626373	1.0
2	21.14200211	0	0	-0.338426441	1.908029437	-19.12241936	1.0
3	21.14200211	0	0	-0.4351705909	2.155800581	-21.73566818	1.0
4	21.14200211	0	0	-0.5335949659	2.403447151	-24.35473061	1.0
[LeftHandPinky4]
1	19.75699997	0	0	0	0	0	1.0
2	19.75699997	0	0	0	0	0	1.0
3	19.75699997	0	0	0	0	0	1.0
4	19.75699997	0	0	0	0	0	1.0
[RightShoulder]
1	-45.70000076	109.4620056	-26.28000069	5.170573711	14.51422977	15.52616882	1.0
2	-45.70000076	109.4620056	-26.28000069	5.162562847	14.5306263	15.46484375	1.0
3	-45.70000076	109.4620056	-26.28000069	5.15507555	14.5488224	15.40455246	1.0
4	-45.70000076	109.4620056	-26.28000069	5.146541595	14.56341743	15.3421936	1.0
[RightArm]
1	-105.9280014	-5.248000145	-22.32099915	30.23653412	2.217688799	62.62067032	1.0
2	-105.9280014	-5.248000145	-22.32099915	29.13056183	2.056185246	62.06908035	1.0
3	-105.9280014	-5.248000145	-22.32099915	28.03449059	1.89288187	61.51014328	1.0
4	-105.9280014	-5.248000145	-22.32099915	26.91861725	1.733178139	60.96590805	1.0
[RightForeArm]
1	-278.414978	0	0	-1.877225145e-06	6.689623356	3.577245934e-06	1.0
2	-278.414978	0	0	-1.73952867e-06	6.652588844	5.456014151e-06	1.0
3	-278.414978	0	0	-1.458366569e-06	6.618926525	7.759805158e-06	1.0
4	-278.414978	0	0	-1.464135607e-06	6.578518867	9.213551493e-06	1.0
[RightHand]
1	-283.2879944	0	0.0009999999311	-20.07316589	1.849768281	6.558176994	1.0
2	-283.2879944	0	0.0009999999311	-17.63144875	1.771759868	6.33809948	1.0
3	-283.2879944	0	0.0009999999311	-15.17558384	1.688518047	6.13561821	1.0
4	-283.2879944	0	0.0009999999311	-12.7480154	1.615742922	5.897945404	1.0
[RightHandPinky1]
1	-80.76699829	-4.885000229	-38.06000137	-1.507867575	-4.696541309	26.50438881	1.0
2	-80.76699829	-4.885000229	-38.06000137	-1.58278501	-4.773570061	27.67825508	1.0
3	-80.76699829	-4.885000229	-38.06000137	-1.657388687	-4.850696564	28.85280228	1.0
4	-80.76699829	-4.885000229	-38.06000137	-1.732620001	-4.927628517	30.02598572	1.0
[RightHandPinky2]
1	-36	0	0.0009999999311	-0.2127305865	-1.388780713	17.43663025	1.0
2	-36	0	0.0009999999311	-0.2990175188	-1.595054388	20.20340538	1.0
3	-36	0	0.0009999999311	-0.3846737146	-1.801586151	22.96963501	1.0
4	-36	0	0.0009999999311	-0.471591413	-2.007601738	25.73695755	1.0
[RightHandPinky3]
1	-21.14200211	0	0	-0.1918348819	-1.320337415	16.53286743	1.0
2	-21.14200211	0	0	-0.281101197	-1.539829612	19.46532631	1.0
3	-21.14200211	0	0	-0.3696587682	-1.759610176	22.39721489	1.0
4	-21.14200211	0	0	-0.4596337676	-1.978813887	25.33024406	1.0
[RightHandPinky4]
1	-19.75699997	0	0	0	0	0	1.0
2	-19.75699997	0	0	0	0	0	1.0
3	-19.75699997	0	0	0	0	0	1.0
4	-19.75699997	0	0	0	0	0	1.0
[RightHandRing1]
1	-91.03599548	-0.4390000105	-18.65100098	-1.04608345	-2.885404348	20.49067497	1.0
2	-91.03599548	-0.4390000105	-18.65100098	-1.118932962	-2.990575314	21.56101036	1.0
3	-91.03599548	-0.4390000105	-18.65100098	-1.191782951	-3.095773458	22.63237	1.0
4	-91.03599548	-0.4390000105	-18.65100098	-1.264632225	-3.200916529	23.70168304	1.0
[RightHandRing2]
1	-31.54000092	0	0	-0.3066920936	-1.658757091	20.94922829	1.0
2	-31.54000092	0	0	-0.4177471697	-1.878802896	24.0010376	1.0
3	-31.54000092	0	0	-0.528011322	-2.099153996	27.05115509	1.0
4	-31.54000092	0	0	-0.6398572922	-2.318894625	30.10466003	1.0
[RightHandRing3]
1	-29.37700081	0	0	-0.2245378494	-1.425853729	17.8977375	1.0
2	-29.37700081	0	0	-0.3496168256	-1.695115328	21.5757885	1.0
3	-29.37700081	0	0	-0.4735034406	-1.964758515	25.25074005	1.0
4	-29.37700081	0	0	-0.5997748375	-2.233638048	28.9318924	1.0
[RightHandRing4]
1	-26.47500038	0	0	0	0	0	1.0
2	-26.47500038	0	0	0	0	0	1.0
3	-26.47500038	0	0	0	0	0	1.0
4	-26.47500038	0	0	0	0	0	1.0
[RightHandMiddle1]
1	-95.32500458	0	0	-0.7017182112	-2.089077473	15.01518917	1.0
2	-95.32500458	0	0	-0.8007084131	-2.191667557	16.58446503	1.0
3	-95.32500458	0	0	-0.899484992	-2.294408321	18.15310287	1.0
4	-95.32500458	0	0	-0.998688817	-2.396847725	19.72301483	1.0
[RightHandMiddle2]
1	-36.98199844	0	0	-0.2132481337	-1.390423894	17.43832588	1.0
2	-36.98199844	0	0	-0.2980927229	-1.593795776	20.16497803	1.0
3	-36.98199844	0	0	-0.3823181391	-1.797406793	22.89094543	1.0
4	-36.98199844	0	0	-0.4677818716	-2.000539541	25.6182785	1.0
[RightHandMiddle3]
1	-29.50900078	0	0	-0.2384294868	-1.470176697	18.44775009	1.0
2	-29.50900078	0	0	-0.3650500178	-1.736580849	22.10195923	1.0
3	-29.50900078	0	0	-0.4904986322	-2.003373861	25.7531395	1.0
4	-29.50900078	0	0	-0.61829108	-2.269388914	29.4103775	1.0
[RightHandMiddle4]
1	-28.3390007	0	0.0009999999311	0	0	0	1.0
2	-28.3390007	0	0.0009999999311	0	0	0	1.0
3	-28.3390007	0	0.0009999999311	0	0	0	1.0
4	-28.3390007	0	0.0009999999311	0	0	0	1.0
[RightHandIndex1]
1	-91.08300018	-5.167999744	22.60099792	0.1879217774	1.254196882	6.830245495	1.0
2	-91.08300018	-5.167999744	22.60099792	0.166900143	1.071822882	9.005918503	1.0
3	-91.08300018	-5.167999744	22.60099792	0.1463970393	0.8893440366	11.17892361	1.0
4	-91.08300018	-5.167999744	22.60099792	0.1248568743	0.707074523	13.35726738	1.0
[RightHandIndex2]
1	-36.76399994	0	0	-0.2126509398	-1.388514161	17.41353607	1.0
2	-36.76399994	0	0	-0.3098920584	-1.614991188	20.46437454	1.0
3	-36.76399994	0	0	-0.4063254595	-1.841724396	23.5135231	1.0
4	-36.76399994	0	0	-0.5043743253	-2.067945242	26.56605339	1.0
[RightHandIndex3]
1	-28.83100128	0	0	-0.04583532736	-0.6505876184	8.059420586	1.0
2	-28.83100128	0	0	-0.09911577404	-0.8732255101	10.89081764	1.0
3	-28.83100128	0	0	-0.1517046392	-1.096033335	13.7217598	1.0
4	-28.83100128	0	0	-0.205676645	-1.318501234	16.55360985	1.0
[RightHandIndex4]
1	-23.92700005	0	0	0	0	0	1.0
2	-23.92700005	0	0	0	0	0	1.0
3	-23.92700005	0	0	0	0	0	1.0
4	-23.92700005	0	0	0	0	0	1.0
[RightHandThumb1]
1	-24.64799881	-15.72700024	26.82600021	-1.658153534	-0.28367275	-4.219377518	1.0
2	-24.64799881	-15.72700024	26.82600021	-1.658150673	-0.2833905518	-4.219482899	1.0
3	-24.64799881	-15.72700024	26.82600021	-1.658147573	-0.2830430865	-4.219611168	1.0
4	-24.64799881	-15.72700024	26.82600021	-1.658144951	-0.2828261554	-4.219693661	1.0
[RightHandThumb2]
1	-32.29800034	-18.64699936	18.64699936	22.25400352	-23.90353584	-24.28309822	1.0
2	-32.29800034	-18.64699936	18.64699936	22.25272751	-23.90241432	-24.28163528	1.0
3	-32.29800034	-18.64699936	18.64699936	22.25111771	-23.90098	-24.27980232	1.0
4	-32.29800034	-18.64699936	18.64699936	22.25017357	-23.90016937	-24.27870941	1.0
[RightHandThumb3]
1	-26.52600098	-15.31399918	15.31399918	-14.48194122	-6.740046978	-11.36255646	1.0
2	-26.52600098	-15.31399918	15.31399918	-14.48190784	-6.740014076	-11.36281586	1.0
3	-26.52600098	-15.31399918	15.31399918	-14.48187637	-6.739944458	-11.36313725	1.0
4	-26.52600098	-15.31399918	15.31399918	-14.48184204	-6.739948273	-11.36333656	1.0
[RightHandThumb4]
1	-19.54599953	-11.28499985	11.28499985	0	0	0	1.0
2	-19.54599953	-11.28499985	11.28499985	0	0	0	1.0
3	-19.54599953	-11.28499985	11.28499985	0	0	0	1.0
4	-19.54599953	-11.28499985	11.28499985	0	0	0	1.0
[LeftUpLeg]
1	82.07800293	-67.51699829	-15.99599934	-8.354345322	16.22532845	7.740517616	1.0
2	82.07800293	-67.51699829	-15.99599934	-8.782570839	16.20102119	6.774899483	1.0
3	82.07800293	-67.51699829	-15.99599934	-9.215089798	16.1687355	5.806484222	1.0
4	82.07800293	-67.51699829	-15.99599934	-9.639021873	16.15240479	4.843662262	1.0
[LeftLeg]
1	0	-443.7049866	2.845999956	12.30842113	1.101442456	4.504284859	1.0
2	0	-443.7049866	2.845999956	13.18085289	0.8747068644	4.477225304	1.0
3	0	-443.7049866	2.845999956	14.0531559	0.6494222879	4.450597763	1.0
4	0	-443.7049866	2.845999956	14.9257164	0.4212355912	4.423106194	1.0
[LeftFoot]
1	0	-444.2789917	-29.8219986	1.187275529	0.6692329645	-7.097998619	1.0
2	0	-444.2789917	-29.8219986	0.6982126236	0.4241449237	-7.23366642	1.0
3	0	-444.2789917	-29.8219986	0.2109371424	0.1801401079	-7.367922783	1.0
4	0	-444.2789917	-29.8219986	-0.2799131274	-0.06603106111	-7.505001545	1.0
[LeftToeBase]
1	0	-87.28699493	107.1060028	-4.933146954	1.075609816e-05	-1.265267088e-06	1.0
2	0	-87.28699493	107.1060028	-4.876551628	9.655191207e-06	-1.342326755e-06	1.0
3	0	-87.28699493	107.1060028	-4.811481476	8.648830772e-06	-1.470095526e-06	1.0
4	0	-87.28699493	107.1060028	-4.7633605	7.453379112e-06	-1.496445975e-06	1.0
[RightUpLeg]
1	-82.07800293	-67.51699829	-15.99599934	-0.0241297558	-10.40189171	3.4464674	1.0
2	-82.07800293	-67.51699829	-15.99599934	-1.675924778	-10.17746162	2.506860971	1.0
3	-82.07800293	-67.51699829	-15.99599934	-3.342659712	-9.956838608	1.564317703	1.0
4	-82.07800293	-67.51699829	-15.99599934	-4.979514599	-9.728603363	0.6276484132	1.0
[RightLeg]
1	0	-443.7049866	2.861999989	8.049255371	-9.226776123	-4.560125351	1.0
2	0	-443.7049866	2.861999989	11.65228653	-8.939367294	-5.109238148	1.0
3	0	-443.7049866	2.861999989	15.28032112	-8.658414841	-5.665088654	1.0
4	0	-443.7049866	2.861999989	18.85834694	-8.364548683	-6.207463264	1.0
[RightFoot]
1	0	-444.2770081	-29.83799934	-3.774668932	-1.435435057	3.301511765	1.0
2	0	-444.2770081	-29.83799934	-5.652632713	-1.926859379	3.688191652	1.0
3	0	-444.2770081	-29.83799934	-7.540719986	-2.402823925	4.077198982	1.0
4	0	-444.2770081	-29.83799934	-9.408560753	-2.909707785	4.461551666	1.0
[RightToeBase]
1	0	-87.28699493	107.1060028	-7.273477554	4.587363492e-06	-1.028245833e-06	1.0
2	0	-87.28699493	107.1060028	-7.413572788	4.659592832e-06	-9.628206499e-07	1.0
3	0	-87.28699493	107.1060028	-7.558033466	4.77143567e-06	-8.939919667e-07	1.0
4	0	-87.28699493	107.1060028	-7.693762779	4.804051514e-06	-8.319703397e-07	1.0
[EndOfFile]
